<svg width="15" height="15" viewBox="0 0 15 15" fill="none" xmlns="http://www.w3.org/2000/svg">
<path d="M7.5 0C3.35685 0 0 3.35685 0 7.5C0 11.6431 3.35685 15 7.5 15C11.6431 15 15 11.6431 15 7.5C15 3.35685 11.6431 0 7.5 0ZM7.5 13.5484C4.15827 13.5484 1.45161 10.8417 1.45161 7.5C1.45161 4.15827 4.15827 1.45161 7.5 1.45161C10.8417 1.45161 13.5484 4.15827 13.5484 7.5C13.5484 10.8417 10.8417 13.5484 7.5 13.5484ZM10.5786 5.61895L8.69758 7.5L10.5786 9.38105C10.7208 9.52319 10.7208 9.75302 10.5786 9.89516L9.89516 10.5786C9.75302 10.7208 9.52319 10.7208 9.38105 10.5786L7.5 8.69758L5.61895 10.5786C5.47681 10.7208 5.24698 10.7208 5.10484 10.5786L4.42137 9.89516C4.27923 9.75302 4.27923 9.52319 4.42137 9.38105L6.30242 7.5L4.42137 5.61895C4.27923 5.47681 4.27923 5.24698 4.42137 5.10484L5.10484 4.42137C5.24698 4.27923 5.47681 4.27923 5.61895 4.42137L7.5 6.30242L9.38105 4.42137C9.52319 4.27923 9.75302 4.27923 9.89516 4.42137L10.5786 5.10484C10.7208 5.24698 10.7208 5.47681 10.5786 5.61895Z" fill="#E5127B"/>
</svg>
