<svg width="25" height="25" viewBox="0 0 25 25" fill="none" xmlns="http://www.w3.org/2000/svg">
<path d="M16.9607 7.66129C16.2298 3.16028 14.506 0 12.5 0C10.494 0 8.77016 3.16028 8.03931 7.66129H16.9607ZM7.66129 12.5C7.66129 13.619 7.72177 14.6925 7.82762 15.7258H17.1673C17.2732 14.6925 17.3337 13.619 17.3337 12.5C17.3337 11.381 17.2732 10.3075 17.1673 9.27419H7.82762C7.72177 10.3075 7.66129 11.381 7.66129 12.5ZM24.0272 7.66129C22.5857 4.23891 19.6673 1.59274 16.0635 0.524194C17.2933 2.22782 18.1401 4.79335 18.5837 7.66129H24.0272ZM8.93145 0.524194C5.33266 1.59274 2.40927 4.23891 0.972782 7.66129H6.41633C6.85484 4.79335 7.70161 2.22782 8.93145 0.524194ZM24.5665 9.27419H18.7853C18.8911 10.3327 18.9516 11.4163 18.9516 12.5C18.9516 13.5837 18.8911 14.6673 18.7853 15.7258H24.5615C24.8387 14.6925 24.995 13.619 24.995 12.5C24.995 11.381 24.8387 10.3075 24.5665 9.27419ZM6.04839 12.5C6.04839 11.4163 6.10887 10.3327 6.21472 9.27419H0.433468C0.16129 10.3075 0 11.381 0 12.5C0 13.619 0.16129 14.6925 0.433468 15.7258H6.20968C6.10887 14.6673 6.04839 13.5837 6.04839 12.5ZM8.03931 17.3387C8.77016 21.8397 10.494 25 12.5 25C14.506 25 16.2298 21.8397 16.9607 17.3387H8.03931ZM16.0685 24.4758C19.6673 23.4073 22.5907 20.7611 24.0323 17.3387H18.5887C18.1452 20.2067 17.2984 22.7722 16.0685 24.4758ZM0.972782 17.3387C2.41431 20.7611 5.33266 23.4073 8.93649 24.4758C7.70665 22.7722 6.85988 20.2067 6.41633 17.3387H0.972782Z" fill="black"/>
</svg>
