<svg width="34" height="25" viewBox="0 0 34 25" fill="none" xmlns="http://www.w3.org/2000/svg">
<path d="M32.2917 20.8333H4.16667V1.04167C4.16667 0.466146 3.70052 0 3.125 0H1.04167C0.466146 0 0 0.466146 0 1.04167V22.9167C0 24.0671 0.932943 25 2.08333 25H32.2917C32.8672 25 33.3333 24.5339 33.3333 23.9583V21.875C33.3333 21.2995 32.8672 20.8333 32.2917 20.8333ZM30.2083 2.08333H22.5221C21.1302 2.08333 20.4329 3.76628 21.4173 4.75065L23.5267 6.86003L18.75 11.6374L13.9733 6.86068C13.1595 6.04688 11.8405 6.04688 11.0273 6.86068L6.55534 11.3327C6.14844 11.7396 6.14844 12.3991 6.55534 12.806L8.02799 14.2786C8.4349 14.6855 9.0944 14.6855 9.5013 14.2786L12.5 11.2793L17.2767 16.056C18.0905 16.8698 19.4095 16.8698 20.2227 16.056L26.4727 9.80599L28.582 11.9154C29.5664 12.8997 31.2493 12.2025 31.2493 10.8105V3.125C31.25 2.54948 30.7839 2.08333 30.2083 2.08333Z" fill="black"/>
</svg>
