<svg width="57" height="86" viewBox="0 0 57 86" fill="none" xmlns="http://www.w3.org/2000/svg">
<g clip-path="url(#clip0_349_7)">
<path d="M28.3541 50.2448C40.5842 50.2448 50.4985 40.3304 50.4985 28.1003C50.4985 15.8703 40.5842 5.95593 28.3541 5.95593C16.1241 5.95593 6.20972 15.8703 6.20972 28.1003C6.20972 40.3304 16.1241 50.2448 28.3541 50.2448Z" fill="white"/>
<path d="M56.7084 30.3851C56.3959 30.9709 56.4741 31.6544 56.3959 32.2793C56.1616 34.0173 55.7711 35.7162 55.2243 37.376C54.8337 38.5672 54.3846 39.7389 53.8378 40.852C53.291 42.0041 52.6271 43.1172 51.885 44.1912C50.9672 45.4995 50.0104 46.7688 48.9168 47.921C47.8623 49.0341 46.7102 50.03 45.4995 50.9868C44.2497 51.9827 42.9023 52.8224 41.4963 53.545C40.4418 54.0917 39.4068 54.7557 38.2157 54.99C37.5712 55.1267 37.5322 55.7125 37.4736 56.1226C37.3174 57.1576 36.8292 58.0559 36.6144 59.0518C36.2043 60.8093 35.5989 62.5082 35.0717 64.2266C34.4468 66.277 33.8414 68.347 33.197 70.3778C32.826 71.569 32.3573 72.7407 32.084 73.9514C31.8106 75.2012 31.2638 76.3533 30.9904 77.5836C30.6975 78.8724 30.1507 80.1026 29.8578 81.3915C29.5649 82.6217 29.1157 83.7738 28.7252 84.965C28.6276 85.297 28.7252 85.6485 28.5104 85.9609C28.3542 85.9609 28.3151 85.8242 28.2956 85.7266C27.6707 83.8715 27.163 81.9968 26.5967 80.1417C26.2452 79.0091 25.796 77.8765 25.5422 76.7048C25.1907 75.1035 24.5072 73.5999 24.1362 71.9986C23.9214 71.1004 23.4918 70.2411 23.2965 69.3429C22.9841 67.8978 22.3592 66.5504 22.0467 65.0858C21.8514 64.129 21.3633 63.2307 21.1289 62.2738C20.8555 61.0826 20.4064 59.95 20.094 58.7784C19.8206 57.7825 19.4886 56.7866 19.2152 55.8102C19.059 55.2439 18.688 55.0486 18.2388 54.951C17.8678 54.8924 17.5553 54.7361 17.2429 54.5994C15.6026 53.8574 13.9818 53.0177 12.4977 52.0218C10.6816 50.7915 9.02174 49.3856 7.53764 47.7843C6.61984 46.7884 5.74109 45.7534 4.97951 44.6403C4.41321 43.8202 3.8469 42.9609 3.43682 42.0431C3.2806 41.7112 3.02674 41.3987 2.87052 41.0668C2.26516 39.8756 1.73791 38.6258 1.34736 37.3565C0.663887 35.0913 0.117112 32.7675 0.019473 30.3656C-0.0586378 28.3737 0.0390008 26.4015 0.175695 24.4292C0.253805 23.2184 0.683415 22.0468 0.956803 20.8751C1.3083 19.4691 1.8746 18.1412 2.38232 16.7743C2.5776 16.2666 2.89005 15.837 3.12438 15.3488C3.65163 14.2747 4.29604 13.2593 4.97951 12.2829C5.58487 11.3846 6.20975 10.4864 6.97133 9.70526C7.85008 8.80699 8.68977 7.88919 9.66616 7.06902C10.4668 6.40508 11.2479 5.76067 12.0876 5.15531C13.2788 4.29609 14.5481 3.55404 15.8564 2.90962C18.0435 1.85513 20.3478 1.01544 22.7302 0.585828C24.1362 0.331967 25.5617 0.097635 27.0068 0.156218C27.2606 0.156218 27.5145 0.175746 27.7098 -0.0195312H28.569C28.7838 0.214801 29.0572 0.175746 29.3306 0.175746C30.8342 0.117163 32.3183 0.31244 33.7829 0.5663C36.2043 0.995909 38.489 1.87466 40.7152 2.8901C41.6721 3.31971 42.5508 3.90554 43.4491 4.47184C44.3864 5.0772 45.3237 5.70209 46.183 6.40508C46.886 6.95186 47.4913 7.63533 48.1748 8.22116C48.6434 8.63124 49.0926 9.08038 49.4636 9.54904C50.2642 10.584 51.1235 11.5604 51.8265 12.6735C52.6466 13.9818 53.4668 15.2707 54.0722 16.7157C54.4627 17.6335 54.8728 18.5318 55.1852 19.4886C55.7515 21.2071 56.1421 22.945 56.3764 24.7416C56.4545 25.347 56.2983 26.0109 56.6693 26.5772V30.3656L56.7084 30.3851ZM28.3932 51.5336C41.1643 51.3383 51.4359 41.2034 51.2797 28.1589C51.143 15.5245 41.0472 5.40917 28.2175 5.44823C15.544 5.48728 4.97951 15.7979 5.35054 29.1939C5.70203 41.4768 15.6221 51.4164 28.3932 51.5336Z" fill="#E5127B"/>
</g>
<defs>
<clipPath id="clip0_349_7">
<rect width="56.7084" height="86" fill="white"/>
</clipPath>
</defs>
</svg>
