<svg width="36" height="25" viewBox="0 0 36 25" fill="none" xmlns="http://www.w3.org/2000/svg">
<path d="M34.0757 17.2583C34.2208 16.4713 34.2208 15.6676 34.0757 14.8806L35.5157 14.0489C35.6832 13.954 35.7558 13.7587 35.6999 13.5745C35.326 12.3688 34.6841 11.2748 33.8468 10.3706C33.7185 10.2311 33.5119 10.1976 33.3445 10.2925L31.9044 11.1241C31.296 10.605 30.5984 10.2032 29.8448 9.93525V8.27194C29.8448 8.08216 29.7109 7.91471 29.5267 7.87564C28.282 7.59656 27.015 7.60773 25.8317 7.87564C25.6475 7.91471 25.5135 8.08216 25.5135 8.27194V9.93525C24.76 10.2032 24.0623 10.605 23.4539 11.1241L22.0138 10.2925C21.852 10.1976 21.6399 10.2311 21.5115 10.3706C20.6743 11.2748 20.0324 12.3688 19.6584 13.5745C19.6026 13.7587 19.6807 13.954 19.8426 14.0489L21.2827 14.8806C21.1375 15.6676 21.1375 16.4713 21.2827 17.2583L19.8426 18.09C19.6752 18.1849 19.6026 18.3802 19.6584 18.5644C20.0324 19.77 20.6743 20.8585 21.5115 21.7683C21.6399 21.9078 21.8464 21.9413 22.0138 21.8464L23.4539 21.0147C24.0623 21.5338 24.76 21.9357 25.5135 22.2036V23.8669C25.5135 24.0567 25.6475 24.2242 25.8317 24.2632C27.0764 24.5423 28.3434 24.5311 29.5267 24.2632C29.7109 24.2242 29.8448 24.0567 29.8448 23.8669V22.2036C30.5984 21.9357 31.296 21.5338 31.9044 21.0147L33.3445 21.8464C33.5064 21.9413 33.7185 21.9078 33.8468 21.7683C34.6841 20.864 35.326 19.77 35.6999 18.5644C35.7558 18.3802 35.6776 18.1849 35.5157 18.09L34.0757 17.2583ZM27.6848 18.7765C26.1889 18.7765 24.9777 17.5597 24.9777 16.0694C24.9777 14.5791 26.1945 13.3624 27.6848 13.3624C29.175 13.3624 30.3918 14.5791 30.3918 16.0694C30.3918 17.5597 29.1806 18.7765 27.6848 18.7765ZM5.35834 10.7111C7.32865 10.7111 8.93057 9.10918 8.93057 7.13887C8.93057 5.16856 7.32865 3.56664 5.35834 3.56664C3.38803 3.56664 1.78611 5.16856 1.78611 7.13887C1.78611 9.10918 3.38803 10.7111 5.35834 10.7111ZM17.8611 12.4972C17.9672 12.4972 18.0677 12.4693 18.1737 12.4637C18.637 11.2525 19.3179 10.1139 20.1998 9.15941C20.6129 8.71288 21.1989 8.45613 21.8129 8.45613C22.198 8.45613 22.5776 8.5566 22.9069 8.75195L23.3478 9.00871C23.3925 8.9808 23.4372 8.95847 23.4818 8.93056C23.8725 8.11565 24.1069 7.21143 24.1069 6.2514C24.1069 2.79638 21.3106 0 17.8555 0C14.4005 0 11.6097 2.7908 11.6097 6.24581C11.6097 9.70083 14.4061 12.4972 17.8611 12.4972ZM23.733 23.3534C23.6046 23.2864 23.4762 23.2083 23.3534 23.1357C22.8957 23.4037 22.4994 23.6827 21.8185 23.6827C21.2101 23.6827 20.624 23.426 20.2054 22.9795C19.184 21.8743 18.4025 20.5291 17.9616 19.0947C17.3644 17.169 19.3514 16.3206 19.4017 16.2871C19.3961 16.142 19.3961 15.9969 19.4017 15.8518L18.9607 15.595C18.7486 15.4722 18.57 15.3159 18.4137 15.1429C18.2295 15.1541 18.0509 15.1764 17.8667 15.1764C16.4936 15.1764 15.2099 14.8415 14.0433 14.2833H13.58C10.0246 14.2833 7.14445 17.1634 7.14445 20.7133V22.3208C7.14445 23.8 8.3445 25 9.82362 25H24.079C23.8725 24.6651 23.733 24.2856 23.733 23.8669V23.3534ZM9.66176 13.5354C9.01429 12.8935 8.12681 12.4972 7.14445 12.4972H3.57223C1.60192 12.4972 0 14.0991 0 16.0694V17.8555C0 18.8435 0.798169 19.6417 1.78611 19.6417H5.46439C5.81603 16.996 7.41237 14.7689 9.66176 13.5354Z" fill="black"/>
</svg>
