<svg width="31" height="36" viewBox="0 0 31 36" fill="none" xmlns="http://www.w3.org/2000/svg">
<path d="M24.6329 2.08164L24.6329 33.9184C24.6329 34.5947 25.181 35.1429 25.8574 35.1429L28.9186 35.1429C29.5949 35.1429 30.1431 34.5947 30.1431 33.9184L30.1431 2.08164C30.1431 1.40534 29.5949 0.857147 28.9186 0.857147L25.8574 0.857147C25.1811 0.857147 24.6329 1.40534 24.6329 2.08164ZM12.388 2.08164L12.388 33.9184C12.388 34.5947 12.9362 35.1429 13.6125 35.1429L16.6737 35.1429C17.35 35.1429 17.8982 34.5947 17.8982 33.9184L17.8982 2.08164C17.8982 1.40534 17.35 0.857147 16.6737 0.857147L13.6125 0.857146C12.9362 0.857146 12.388 1.40534 12.388 2.08164ZM0.143066 2.08164L0.143065 33.9184C0.143065 34.5947 0.691252 35.1429 1.36755 35.1429L4.42878 35.1429C5.10508 35.1429 5.65327 34.5947 5.65327 33.9184L5.65327 2.08164C5.65327 1.40533 5.10508 0.857146 4.42878 0.857146L1.36756 0.857146C0.691254 0.857146 0.143066 1.40533 0.143066 2.08164Z" fill="#E5127B"/>
</svg>
